<mxfile host="Electron" modified="2024-06-22T02:05:59.844Z" agent="Mozilla/5.0 (Macintosh; Intel Mac OS X 10_15_7) AppleWebKit/537.36 (KHTML, like Gecko) draw.io/24.4.6 Chrome/124.0.6367.207 Electron/30.0.6 Safari/537.36" etag="gzdi8uaEeQvgD2OGT5bl" version="24.4.6" type="device">
  <diagram name="第 1 页" id="tw6GiJ8MQ54OxcTlXbzx">
    <mxGraphModel dx="979" dy="718" grid="1" gridSize="10" guides="1" tooltips="1" connect="1" arrows="1" fold="1" page="1" pageScale="1" pageWidth="827" pageHeight="1169" math="0" shadow="0">
      <root>
        <mxCell id="0" />
        <mxCell id="1" parent="0" />
        <mxCell id="QVJBSi5rDed6TAMBtlgI-3" value="" style="edgeStyle=orthogonalEdgeStyle;rounded=0;orthogonalLoop=1;jettySize=auto;html=1;" edge="1" parent="1" source="QVJBSi5rDed6TAMBtlgI-1" target="QVJBSi5rDed6TAMBtlgI-2">
          <mxGeometry relative="1" as="geometry" />
        </mxCell>
        <mxCell id="QVJBSi5rDed6TAMBtlgI-4" value="匹配&lt;div&gt;&lt;br&gt;&lt;/div&gt;" style="edgeLabel;html=1;align=center;verticalAlign=middle;resizable=0;points=[];" vertex="1" connectable="0" parent="QVJBSi5rDed6TAMBtlgI-3">
          <mxGeometry x="0.075" y="-1" relative="1" as="geometry">
            <mxPoint as="offset" />
          </mxGeometry>
        </mxCell>
        <mxCell id="QVJBSi5rDed6TAMBtlgI-6" value="" style="edgeStyle=orthogonalEdgeStyle;rounded=0;orthogonalLoop=1;jettySize=auto;html=1;" edge="1" parent="1" source="QVJBSi5rDed6TAMBtlgI-1" target="QVJBSi5rDed6TAMBtlgI-5">
          <mxGeometry relative="1" as="geometry" />
        </mxCell>
        <mxCell id="QVJBSi5rDed6TAMBtlgI-19" value="不匹配" style="edgeLabel;html=1;align=center;verticalAlign=middle;resizable=0;points=[];" vertex="1" connectable="0" parent="QVJBSi5rDed6TAMBtlgI-6">
          <mxGeometry x="-0.685" y="1" relative="1" as="geometry">
            <mxPoint x="7" y="1" as="offset" />
          </mxGeometry>
        </mxCell>
        <mxCell id="QVJBSi5rDed6TAMBtlgI-1" value="EUID&lt;br&gt;UID" style="rhombus;whiteSpace=wrap;html=1;" vertex="1" parent="1">
          <mxGeometry x="60" y="170" width="130" height="70" as="geometry" />
        </mxCell>
        <mxCell id="QVJBSi5rDed6TAMBtlgI-13" style="edgeStyle=orthogonalEdgeStyle;rounded=0;orthogonalLoop=1;jettySize=auto;html=1;entryX=0;entryY=0.5;entryDx=0;entryDy=0;" edge="1" parent="1" source="QVJBSi5rDed6TAMBtlgI-2" target="QVJBSi5rDed6TAMBtlgI-5">
          <mxGeometry relative="1" as="geometry" />
        </mxCell>
        <mxCell id="QVJBSi5rDed6TAMBtlgI-21" value="未置位" style="edgeLabel;html=1;align=center;verticalAlign=middle;resizable=0;points=[];" vertex="1" connectable="0" parent="QVJBSi5rDed6TAMBtlgI-13">
          <mxGeometry x="-0.8481" y="1" relative="1" as="geometry">
            <mxPoint x="3" as="offset" />
          </mxGeometry>
        </mxCell>
        <mxCell id="QVJBSi5rDed6TAMBtlgI-15" value="" style="edgeStyle=orthogonalEdgeStyle;rounded=0;orthogonalLoop=1;jettySize=auto;html=1;entryX=0.5;entryY=0;entryDx=0;entryDy=0;" edge="1" parent="1" source="QVJBSi5rDed6TAMBtlgI-2" target="QVJBSi5rDed6TAMBtlgI-14">
          <mxGeometry relative="1" as="geometry">
            <Array as="points">
              <mxPoint x="125" y="460" />
              <mxPoint x="335" y="460" />
            </Array>
          </mxGeometry>
        </mxCell>
        <mxCell id="QVJBSi5rDed6TAMBtlgI-23" value="置位" style="edgeLabel;html=1;align=center;verticalAlign=middle;resizable=0;points=[];" vertex="1" connectable="0" parent="QVJBSi5rDed6TAMBtlgI-15">
          <mxGeometry x="-0.8047" relative="1" as="geometry">
            <mxPoint as="offset" />
          </mxGeometry>
        </mxCell>
        <mxCell id="QVJBSi5rDed6TAMBtlgI-2" value="Owner Execute Bit" style="rhombus;whiteSpace=wrap;html=1;" vertex="1" parent="1">
          <mxGeometry x="60" y="320" width="130" height="70" as="geometry" />
        </mxCell>
        <mxCell id="QVJBSi5rDed6TAMBtlgI-8" value="" style="edgeStyle=orthogonalEdgeStyle;rounded=0;orthogonalLoop=1;jettySize=auto;html=1;" edge="1" parent="1" source="QVJBSi5rDed6TAMBtlgI-5" target="QVJBSi5rDed6TAMBtlgI-7">
          <mxGeometry relative="1" as="geometry" />
        </mxCell>
        <mxCell id="QVJBSi5rDed6TAMBtlgI-9" value="匹配" style="edgeLabel;html=1;align=center;verticalAlign=middle;resizable=0;points=[];" vertex="1" connectable="0" parent="QVJBSi5rDed6TAMBtlgI-8">
          <mxGeometry x="-0.275" y="1" relative="1" as="geometry">
            <mxPoint as="offset" />
          </mxGeometry>
        </mxCell>
        <mxCell id="QVJBSi5rDed6TAMBtlgI-11" value="" style="edgeStyle=orthogonalEdgeStyle;rounded=0;orthogonalLoop=1;jettySize=auto;html=1;" edge="1" parent="1" source="QVJBSi5rDed6TAMBtlgI-5" target="QVJBSi5rDed6TAMBtlgI-10">
          <mxGeometry relative="1" as="geometry" />
        </mxCell>
        <mxCell id="QVJBSi5rDed6TAMBtlgI-20" value="不匹配" style="edgeLabel;html=1;align=center;verticalAlign=middle;resizable=0;points=[];" vertex="1" connectable="0" parent="QVJBSi5rDed6TAMBtlgI-11">
          <mxGeometry x="-0.815" relative="1" as="geometry">
            <mxPoint x="13" as="offset" />
          </mxGeometry>
        </mxCell>
        <mxCell id="QVJBSi5rDed6TAMBtlgI-5" value="EGID｜Sup&lt;span style=&quot;background-color: initial;&quot;&gt;GID&lt;/span&gt;&lt;div&gt;GID&lt;/div&gt;" style="rhombus;whiteSpace=wrap;html=1;" vertex="1" parent="1">
          <mxGeometry x="270" y="170" width="130" height="70" as="geometry" />
        </mxCell>
        <mxCell id="QVJBSi5rDed6TAMBtlgI-16" style="edgeStyle=orthogonalEdgeStyle;rounded=0;orthogonalLoop=1;jettySize=auto;html=1;entryX=0.5;entryY=0;entryDx=0;entryDy=0;" edge="1" parent="1" source="QVJBSi5rDed6TAMBtlgI-7" target="QVJBSi5rDed6TAMBtlgI-14">
          <mxGeometry relative="1" as="geometry" />
        </mxCell>
        <mxCell id="QVJBSi5rDed6TAMBtlgI-24" value="置位" style="edgeLabel;html=1;align=center;verticalAlign=middle;resizable=0;points=[];" vertex="1" connectable="0" parent="QVJBSi5rDed6TAMBtlgI-16">
          <mxGeometry x="-0.4523" relative="1" as="geometry">
            <mxPoint as="offset" />
          </mxGeometry>
        </mxCell>
        <mxCell id="QVJBSi5rDed6TAMBtlgI-18" style="edgeStyle=orthogonalEdgeStyle;rounded=0;orthogonalLoop=1;jettySize=auto;html=1;entryX=0;entryY=0.5;entryDx=0;entryDy=0;" edge="1" parent="1" source="QVJBSi5rDed6TAMBtlgI-7" target="QVJBSi5rDed6TAMBtlgI-10">
          <mxGeometry relative="1" as="geometry" />
        </mxCell>
        <mxCell id="QVJBSi5rDed6TAMBtlgI-22" value="未置位" style="edgeLabel;html=1;align=center;verticalAlign=middle;resizable=0;points=[];" vertex="1" connectable="0" parent="QVJBSi5rDed6TAMBtlgI-18">
          <mxGeometry x="-0.7681" y="-3" relative="1" as="geometry">
            <mxPoint x="-6" y="-3" as="offset" />
          </mxGeometry>
        </mxCell>
        <mxCell id="QVJBSi5rDed6TAMBtlgI-7" value="Group Execute Bit" style="rhombus;whiteSpace=wrap;html=1;" vertex="1" parent="1">
          <mxGeometry x="270" y="320" width="130" height="70" as="geometry" />
        </mxCell>
        <mxCell id="QVJBSi5rDed6TAMBtlgI-17" style="edgeStyle=orthogonalEdgeStyle;rounded=0;orthogonalLoop=1;jettySize=auto;html=1;exitX=0.5;exitY=1;exitDx=0;exitDy=0;entryX=0.5;entryY=0;entryDx=0;entryDy=0;" edge="1" parent="1" source="QVJBSi5rDed6TAMBtlgI-10" target="QVJBSi5rDed6TAMBtlgI-14">
          <mxGeometry relative="1" as="geometry">
            <Array as="points">
              <mxPoint x="545" y="460" />
              <mxPoint x="335" y="460" />
            </Array>
          </mxGeometry>
        </mxCell>
        <mxCell id="QVJBSi5rDed6TAMBtlgI-25" value="置位" style="edgeLabel;html=1;align=center;verticalAlign=middle;resizable=0;points=[];" vertex="1" connectable="0" parent="QVJBSi5rDed6TAMBtlgI-17">
          <mxGeometry x="-0.2588" y="2" relative="1" as="geometry">
            <mxPoint as="offset" />
          </mxGeometry>
        </mxCell>
        <mxCell id="QVJBSi5rDed6TAMBtlgI-10" value="Other Execute Bit" style="rhombus;whiteSpace=wrap;html=1;" vertex="1" parent="1">
          <mxGeometry x="480" y="170" width="130" height="70" as="geometry" />
        </mxCell>
        <mxCell id="QVJBSi5rDed6TAMBtlgI-28" style="edgeStyle=orthogonalEdgeStyle;rounded=0;orthogonalLoop=1;jettySize=auto;html=1;entryX=0.5;entryY=0;entryDx=0;entryDy=0;" edge="1" parent="1" source="QVJBSi5rDed6TAMBtlgI-14" target="QVJBSi5rDed6TAMBtlgI-26">
          <mxGeometry relative="1" as="geometry" />
        </mxCell>
        <mxCell id="QVJBSi5rDed6TAMBtlgI-14" value="通过" style="rounded=1;whiteSpace=wrap;html=1;" vertex="1" parent="1">
          <mxGeometry x="275" y="520" width="120" height="60" as="geometry" />
        </mxCell>
        <mxCell id="QVJBSi5rDed6TAMBtlgI-29" style="edgeStyle=orthogonalEdgeStyle;rounded=0;orthogonalLoop=1;jettySize=auto;html=1;entryX=0.5;entryY=0;entryDx=0;entryDy=0;" edge="1" parent="1" source="QVJBSi5rDed6TAMBtlgI-26" target="QVJBSi5rDed6TAMBtlgI-27">
          <mxGeometry relative="1" as="geometry" />
        </mxCell>
        <mxCell id="QVJBSi5rDed6TAMBtlgI-31" value="" style="edgeStyle=orthogonalEdgeStyle;rounded=0;orthogonalLoop=1;jettySize=auto;html=1;" edge="1" parent="1" source="QVJBSi5rDed6TAMBtlgI-26" target="QVJBSi5rDed6TAMBtlgI-30">
          <mxGeometry relative="1" as="geometry" />
        </mxCell>
        <mxCell id="QVJBSi5rDed6TAMBtlgI-26" value="SUID" style="rhombus;whiteSpace=wrap;html=1;" vertex="1" parent="1">
          <mxGeometry x="270" y="620" width="130" height="70" as="geometry" />
        </mxCell>
        <mxCell id="QVJBSi5rDed6TAMBtlgI-33" style="edgeStyle=orthogonalEdgeStyle;rounded=0;orthogonalLoop=1;jettySize=auto;html=1;exitX=1;exitY=0.5;exitDx=0;exitDy=0;entryX=0;entryY=0.5;entryDx=0;entryDy=0;" edge="1" parent="1" source="QVJBSi5rDed6TAMBtlgI-27" target="QVJBSi5rDed6TAMBtlgI-32">
          <mxGeometry relative="1" as="geometry" />
        </mxCell>
        <mxCell id="QVJBSi5rDed6TAMBtlgI-27" value="SGID" style="rhombus;whiteSpace=wrap;html=1;" vertex="1" parent="1">
          <mxGeometry x="270" y="730" width="130" height="70" as="geometry" />
        </mxCell>
        <mxCell id="QVJBSi5rDed6TAMBtlgI-30" value="&lt;p style=&quot;margin: 0px 0px 0px 13px; text-indent: -13px; font-variant-numeric: normal; font-variant-east-asian: normal; font-variant-alternates: normal; font-kerning: auto; font-optical-sizing: auto; font-feature-settings: normal; font-variation-settings: normal; font-variant-position: normal; font-stretch: normal; font-size: 14px; line-height: normal; font-family: &amp;quot;.SF NS&amp;quot;; color: rgb(14, 14, 14); text-align: start;&quot; class=&quot;p1&quot;&gt;获得文件所有者权限&lt;/p&gt;" style="whiteSpace=wrap;html=1;" vertex="1" parent="1">
          <mxGeometry x="490" y="627.5" width="135" height="55" as="geometry" />
        </mxCell>
        <mxCell id="QVJBSi5rDed6TAMBtlgI-32" value="&lt;p style=&quot;margin: 0px 0px 0px 13px; text-indent: -13px; font-variant-numeric: normal; font-variant-east-asian: normal; font-variant-alternates: normal; font-kerning: auto; font-optical-sizing: auto; font-feature-settings: normal; font-variation-settings: normal; font-variant-position: normal; font-stretch: normal; font-size: 14px; line-height: normal; font-family: &amp;quot;.SF NS&amp;quot;; color: rgb(14, 14, 14); text-align: start;&quot; class=&quot;p1&quot;&gt;获得文件所属组权限&lt;/p&gt;" style="whiteSpace=wrap;html=1;" vertex="1" parent="1">
          <mxGeometry x="490" y="737.5" width="135" height="55" as="geometry" />
        </mxCell>
      </root>
    </mxGraphModel>
  </diagram>
</mxfile>
